#!OML:ASF I:\golf\golf\golf 2\Subject 1\2002-09-07\Subject1.ASF
:FULLY-SPECIFIED
:DEGREES
214
root -7.87724 17.3879 2.35465 -1.01932 51.8758 -16.7803
lowerback 6.46862 -10.8643 -12.6055
upperback -0.205368 -15.336 -1.47217
thorax -0.953442 -7.5182 5.92242
lowerneck -5.77583 21.066 2.37389
upperneck 14.4821 31.1355 -13.7762
head 8.0469 14.0042 -1.5097
rclavicle -8.09054e-014 2.54444e-014
rhumerus 29.9094 -26.7788 -54.0645
rradius 112.174
rwrist 1.49743
rhand -61.3048 28.8354
rfingers 7.12502
rthumb -33.3932 1.91903
lclavicle -8.09054e-014 2.54444e-014
lhumerus 113.898 -39.4067 44.6765
lradius 42.5682
lwrist 0.810484
lhand -26.3623 -3.51581
lfingers 7.12502
lthumb -179.804 -153.536
rfemur -37.5486 15.4966 25.6396
rtibia 39.8653
rfoot -11.8222 16.3659
rtoes 18.1467
lfemur -3.55904 7.5358 4.31725
ltibia 19.9525
lfoot -17.2748 28.0781
ltoes -7.08003
215
root -7.88481 17.399 2.3252 -0.910242 51.9711 -16.6951
lowerback 6.53621 -10.8914 -12.8246
upperback -0.142207 -15.3886 -1.46478
thorax -0.856062 -7.55057 6.03519
lowerneck -5.72179 21.1068 2.48176
upperneck 14.4624 31.189 -13.8393
head 8.06328 14.0324 -1.53342
rclavicle 9.46215e-014 3.81667e-014
rhumerus 29.97 -26.7329 -54.3071
rradius 111.919
rwrist 1.086
rhand -61.394 28.6523
rfingers 7.12502
rthumb -33.4779 1.75416
lclavicle 9.46215e-014 3.81667e-014
lhumerus 113.77 -39.2663 44.5824
lradius 42.3848
lwrist 0.704438
lhand -26.0362 -3.09829
lfingers 7.12502
lthumb -179.489 -153.119
rfemur -37.5732 15.4432 25.4371
rtibia 39.633
rfoot -11.7333 16.3237
rtoes 18.0812
lfemur -3.83383 7.76501 4.20582
ltibia 20.1515
lfoot -16.9486 27.8754
ltoes -8.29102
216
root -7.89323 17.4072 2.29196 -1.01026 52.0929 -16.9139
lowerback 6.58687 -10.8868 -12.7772
upperback -0.0798776 -15.3811 -1.43526
thorax -0.822311 -7.55273 6.04503
lowerneck -5.66829 21.12 2.60812
upperneck 14.5091 31.2096 -13.8656
head 8.09558 14.0439 -1.55066
rclavicle 3.20043e-014 -1.59028e-014
rhumerus 29.8712 -26.7068 -54.405
rradius 111.718
rwrist 0.576077
rhand -61.5765 28.892
rfingers 7.12502
rthumb -33.6514 2.03153
lclavicle 3.20043e-014 -1.59028e-014
lhumerus 113.726 -39.2707 44.492
lradius 42.207
lwrist 0.741632
lhand -25.5753 -2.8256
lfingers 7.12502
lthumb -179.044 -152.848
rfemur -37.6242 15.2521 25.46
rtibia 39.3768
rfoot -11.6242 16.3697
rtoes 17.8552
lfemur -4.20678 8.16291 4.31171
ltibia 20.4057
lfoot -16.496 27.5257
ltoes -9.69003
217
root -7.90158 17.4139 2.2563 -1.20841 52.2634 -17.2649
lowerback 6.62347 -10.8513 -12.6956
upperback -0.00294492 -15.3272 -1.3328
thorax -0.762303 -7.53634 6.10766
lowerneck -5.66388 21.084 2.61557
upperneck 14.5725 31.1709 -13.869
head 8.1147 14.0214 -1.55523
rclavicle -1.65985e-013 -1.59028e-014
rhumerus 29.6941 -26.6192 -54.341
rradius 111.463
rwrist -0.301888
rhand -61.7019 30.4156
rfingers 7.12502
rthumb -33.7705 3.58121
lclavicle -1.65985e-013 -1.59028e-014
lhumerus 113.739 -39.3855 44.5266
lradius 41.8916
lwrist 0.755444
lhand -25.1117 -2.6308
lfingers 7.12502
lthumb -178.596 -152.656
rfemur -37.668 14.9951 25.567
rtibia 39.0912
rfoot -11.4546 16.4485
rtoes 17.5894
lfemur -4.70666 8.79905 4.50526
ltibia 20.7428
lfoot -16.2478 26.8953
ltoes -9.55758
218
root -7.90936 17.4219 2.22191 -1.36008 52.4326 -17.4378
lowerback 6.77266 -10.77 -12.7774
upperback 0.0719416 -15.2398 -1.29225
thorax -0.748912 -7.49694 6.21262
lowerneck -5.58904 21.0248 2.65893
upperneck 14.6097 31.0653 -13.7694
head 8.09399 13.9855 -1.55574
rclavicle 1.52269e-013 6.36111e-015
rhumerus 29.4163 -26.4646 -54.3705
rradius 111.21
rwrist -1.45407
rhand -61.6351 31.4392
rfingers 7.12502
rthumb -33.707 4.59088
lclavicle 1.52269e-013 6.36111e-015
lhumerus 113.694 -39.6307 44.5396
lradius 41.5688
lwrist 0.775608
lhand -24.6017 -2.50713
lfingers 7.12502
lthumb -178.104 -152.536
rfemur -37.5966 14.7771 25.5673
rtibia 38.7896
rfoot -11.2653 16.4848
rtoes 17.4297
lfemur -5.12851 9.5499 4.59338
ltibia 21.1234
lfoot -15.8591 26.201
ltoes -10.0002
219
root -7.91758 17.4311 2.18632 -1.49786 52.5901 -17.6469
lowerback 6.89669 -10.6833 -12.7321
upperback 0.118501 -15.1363 -1.26993
thorax -0.792144 -7.44555 6.2392
lowerneck -5.65418 20.9627 2.56448
upperneck 14.7504 30.9512 -13.4815
head 8.07687 13.9387 -1.47715
rclavicle 1.08735e-013 6.36111e-015
rhumerus 29.166 -26.3832 -54.5736
rradius 110.981
rwrist -2.28858
rhand -61.6929 30.4943
rfingers 7.12502
rthumb -33.7619 3.65803
lclavicle 1.08735e-013 6.36111e-015
lhumerus 113.567 -39.9139 44.5398
lradius 41.3151
lwrist 0.637266
lhand -24.0247 -2.19363
lfingers 7.12502
lthumb -177.547 -152.228
rfemur -37.5705 14.705 25.5339
rtibia 38.462
rfoot -10.9568 16.4153
rtoes 17.9163
lfemur -5.58112 10.2077 4.69223
ltibia 21.5072
lfoot -15.3647 25.6144
ltoes -11.2647
220
root -7.92673 17.4393 2.14808 -1.652 52.7656 -17.9666
lowerback 6.87811 -10.5736 -12.6173
upperback 0.223411 -14.9714 -1.12876
thorax -0.691393 -7.37927 6.31308
lowerneck -5.9322 20.8536 2.18035
upperneck 14.872 30.8195 -13.2932
head 8.06311 13.8521 -1.37982
rclavicle 3.37934e-015 -4.13472e-014
rhumerus 29.1037 -26.4788 -54.6853
rradius 110.684
rwrist -2.91548
rhand -61.8513 29.5277
rfingers 7.12502
rthumb -33.9125 2.72456
lclavicle 3.37934e-015 -4.13472e-014
lhumerus 113.612 -40.0839 44.5776
lradius 41.0277
lwrist 0.47926
lhand -23.4964 -1.85302
lfingers 7.12502
lthumb -177.036 -151.894
rfemur -37.6234 14.6087 25.5519
rtibia 38.1106
rfoot -10.6492 16.3048
rtoes 18.2655
lfemur -6.15313 10.8309 4.84596
ltibia 21.8816
lfoot -14.8746 25.0732
ltoes -12.2571
221
root -7.93611 17.4486 2.10673 -1.94433 53.0097 -18.3712
lowerback 6.96955 -10.4893 -12.5135
upperback 0.337063 -14.8561 -0.985885
thorax -0.629237 -7.33522 6.41472
lowerneck -6.02149 20.7567 2.01414
upperneck 14.8982 30.7059 -13.3016
head 8.0547 13.7852 -1.37353
rclavicle 7.7526e-014 3.18055e-014
rhumerus 29.0216 -26.4745 -54.8586
rradius 110.365
rwrist -3.78856
rhand -61.8692 29.4907
rfingers 7.12502
rthumb -33.9294 2.6913
lclavicle 7.7526e-014 3.18055e-014
lhumerus 113.631 -40.251 44.5841
lradius 40.6585
lwrist 0.441028
lhand -22.979 -1.6853
lfingers 7.12502
lthumb -176.537 -151.734
rfemur -37.5866 14.1796 25.702
rtibia 37.7358
rfoot -10.3472 16.4595
rtoes 18.3777
lfemur -6.70867 11.4509 5.04612
ltibia 22.2792
lfoot -14.5321 24.3896
ltoes -12.709
222
root -7.94511 17.4598 2.06124 -2.20901 53.2822 -18.7437
lowerback 7.19725 -10.4934 -12.46
upperback 0.347941 -14.8897 -0.917499
thorax -0.730528 -7.34748 6.50439
lowerneck -5.86321 20.7525 2.32239
upperneck 14.9323 30.7039 -13.4244
head 8.10665 13.7937 -1.44613
rclavicle 1.06747e-013 -4.13472e-014
rhumerus 28.8357 -26.1463 -55.3689
rradius 110.053
rwrist -4.74277
rhand -61.8303 29.8608
rfingers 7.12502
rthumb -33.8925 3.05326
lclavicle 1.06747e-013 -4.13472e-014
lhumerus 113.247 -40.4394 44.5892
lradius 40.357
lwrist 0.2948
lhand -22.4033 -1.40221
lfingers 7.12502
lthumb -175.981 -151.46
rfemur -37.5607 13.7641 25.7845
rtibia 37.3488
rfoot -10.0736 16.5808
rtoes 18.3287
lfemur -7.26948 12.0191 5.18607
ltibia 22.6903
lfoot -14.4746 23.609
ltoes -12.5523
223
root -7.95427 17.4729 2.01177 -2.25948 53.5523 -18.9315
lowerback 7.3677 -10.4906 -12.5166
upperback 0.344937 -14.9143 -0.872878
thorax -0.796206 -7.35539 6.61249
lowerneck -5.73835 20.7259 2.77171
upperneck 15.0084 30.6867 -13.6193
head 8.2109 13.7897 -1.54498
rclavicle -2.82274e-014 6.36111e-015
rhumerus 28.5983 -25.8219 -55.9599
rradius 109.791
rwrist -5.72442
rhand -61.8552 30.3784
rfingers 7.12502
rthumb -33.9161 3.57603
lclavicle -2.82274e-014 6.36111e-015
lhumerus 112.784 -40.6953 44.6791
lradius 40.0773
lwrist 0.184535
lhand -21.6292 -0.984774
lfingers 7.12502
lthumb -175.233 -151.058
rfemur -37.6209 13.4766 25.6827
rtibia 36.9613
rfoot -9.90609 16.5124
rtoes 17.6729
lfemur -7.98531 12.6528 5.15748
ltibia 23.0984
lfoot -13.8824 23.1148
ltoes -14.2783
224
root -7.9654 17.487 1.96287 -2.37528 53.891 -19.181
lowerback 7.49785 -10.4568 -12.5574
upperback 0.405197 -14.885 -0.836888
thorax -0.788998 -7.34401 6.68883
lowerneck -5.64455 20.6448 3.18134
upperneck 15.0563 30.5746 -13.7473
head 8.28454 13.747 -1.63601
rclavicle 1.10524e-013 -3.18055e-014
rhumerus 28.3446 -25.6461 -56.5952
rradius 109.572
rwrist -6.85943
rhand -61.7513 30.8999
rfingers 7.12502
rthumb -33.8174 4.07576
lclavicle 1.10524e-013 -3.18055e-014
lhumerus 112.5 -41.053 44.7227
lradius 39.6231
lwrist 0.148167
lhand -20.7519 -0.737434
lfingers 7.12502
lthumb -174.386 -150.832
rfemur -37.6533 13.1136 25.6386
rtibia 36.5609
rfoot -9.71128 16.4575
rtoes 17.1427
lfemur -8.75188 13.3421 5.15028
ltibia 23.5559
lfoot -13.2156 22.551
ltoes -16.2034
